<svg xmlns="http://www.w3.org/2000/svg" width="1200" height="630" viewBox="0 0 1200 630">
  <rect width="1200" height="630" fill="#0a0c0b"/>
  <g stroke="#f2f0e8" stroke-opacity=".08">
    <path d="M60 0v630M150 0v630M240 0v630M330 0v630M420 0v630M510 0v630M600 0v630M690 0v630M780 0v630M870 0v630M960 0v630M1050 0v630M1140 0v630"/>
    <path d="M0 72h1200M0 558h1200"/>
  </g>
  <rect x="60" y="35" width="38" height="38" fill="none" stroke="#f2f0e8" stroke-opacity=".4"/>
  <text x="69" y="59" fill="#b7ff3c" font-family="Menlo,monospace" font-size="15" font-weight="700">JV</text>
  <text x="116" y="60" fill="#f2f0e8" font-family="Menlo,monospace" font-size="15" font-weight="700" letter-spacing="1.6">JOHAN VAZ / CREATIVE DEVELOPER</text>
  <circle cx="1122" cy="54" r="5" fill="#b7ff3c"/>
  <text x="1108" y="60" text-anchor="end" fill="#8e958d" font-family="Menlo,monospace" font-size="14" letter-spacing="1.3">SINGAPORE</text>

  <text x="60" y="214" fill="#f2f0e8" font-family="Arial,Helvetica,sans-serif" font-size="82" font-weight="600" letter-spacing="-5">Interfaces for systems</text>
  <text x="60" y="300" fill="#f2f0e8" font-family="Arial,Helvetica,sans-serif" font-size="82" font-weight="600" letter-spacing="-5">that need to</text>
  <text x="60" y="386" fill="#b7ff3c" font-family="Arial,Helvetica,sans-serif" font-size="82" font-weight="600" letter-spacing="-5">show their work.</text>

  <g transform="translate(802 152)">
    <circle cx="148" cy="148" r="128" fill="none" stroke="#f2f0e8" stroke-opacity=".2" stroke-dasharray="3 8"/>
    <circle cx="148" cy="148" r="84" fill="none" stroke="#7aa7ff" stroke-opacity=".48" stroke-dasharray="6 8"/>
    <path d="M34 128C74 38 194 14 262 92S256 260 168 276" fill="none" stroke="#7aa7ff" stroke-opacity=".7"/>
    <circle cx="148" cy="148" r="49" fill="#b7ff3c"/>
    <text x="148" y="146" text-anchor="middle" fill="#0a0c0b" font-family="Menlo,monospace" font-size="16" font-weight="700">SHIP</text>
    <text x="148" y="165" text-anchor="middle" fill="#0a0c0b" font-family="Menlo,monospace" font-size="7" font-weight="700" letter-spacing="1.3">WITH RECEIPTS</text>
    <circle cx="34" cy="128" r="5" fill="#b7ff3c"/>
    <circle cx="262" cy="92" r="5" fill="#b7ff3c"/>
    <rect x="-12" y="108" width="78" height="39" fill="#111411" stroke="#f2f0e8" stroke-opacity=".3"/>
    <text x="4" y="132" fill="#f2f0e8" font-family="Menlo,monospace" font-size="12">SOURCE</text>
    <rect x="230" y="72" width="78" height="39" fill="#111411" stroke="#f2f0e8" stroke-opacity=".3"/>
    <text x="248" y="96" fill="#f2f0e8" font-family="Menlo,monospace" font-size="12">TEST</text>
  </g>

  <text x="60" y="531" fill="#8e958d" font-family="Menlo,monospace" font-size="15" letter-spacing="1.4">EXPLAINABLE AI  /  DATA INTERFACES  /  FINANCIAL SYSTEMS</text>
  <text x="1140" y="595" text-anchor="end" fill="#8e958d" font-family="Menlo,monospace" font-size="13" letter-spacing="1.2">JOHANVAZ.VERCEL.APP</text>
</svg>
